<svg width="702" height="845" viewBox="0 0 702 845" fill="none" xmlns="http://www.w3.org/2000/svg">
<path d="M484.346 414.476C484.087 414.464 503.188 467.514 502.922 467.517C513.526 476.658 523.308 486.726 532.115 497.618L544.269 514.07C569.164 551.069 583.7 595.61 583.7 643.534C583.7 771.802 479.619 844.27 351.351 844.27C223.083 844.27 119 771.802 119 643.534C119 591.913 135.868 544.22 164.377 505.646L178.817 487.985C188.124 477.671 198.349 468.205 209.349 459.692L225.08 423.436C224.605 423.833 224.158 424.256 223.726 424.694C200.617 400.092 186.744 367.23 186.744 327.842C186.743 296.001 195.812 266.267 211.49 241.066L470.192 214L470.195 214C498.532 243.574 515.956 283.686 515.956 327.842C515.956 362.214 505.396 391.619 487.35 414.901C486.364 414.668 485.356 414.519 484.346 414.476Z" fill="white"/>
<path d="M470.145 213.931C467.143 214.478 464.083 214.767 461.075 215.249C460.296 215.351 459.522 215.473 458.75 215.611C488.244 243.871 506.6 283.661 506.6 327.773C506.6 363.521 494.538 393.379 474.27 416.059C477.323 415.354 480.398 414.78 483.509 414.397C483.776 414.394 484.041 414.395 484.3 414.407C485.31 414.45 486.318 414.599 487.304 414.832C505.349 391.55 515.91 362.145 515.91 327.773C515.91 283.618 498.486 243.505 470.149 213.931L470.145 213.931ZM211.444 240.997C195.766 266.198 186.697 295.932 186.697 327.773C186.698 367.161 200.571 400.023 223.679 424.625C224.112 424.187 224.559 423.764 225.034 423.367L225.035 423.366C227.023 421.726 229.334 420.557 231.8 419.791C209.446 396.696 196.007 365.515 196.007 327.773C196.007 296.899 204.999 268.141 220.507 243.972C217.352 243.421 214.321 242.381 211.444 240.997ZM666.915 300.062C665.823 300.053 664.935 300.169 664.528 300.417L613.71 342.758C611.712 365.594 611.046 392.12 608.675 421.987L567.221 411.466C564.811 411.569 567.247 420.322 570.342 421.522L607.472 435.755C607.256 438.011 607.03 440.285 606.79 442.576C582.527 461.322 557.666 480.961 532.069 497.55C523.262 486.657 513.48 476.589 502.876 467.448C501.772 470.366 500.032 473.044 497.844 475.295C544.726 516.173 574.344 576.338 574.344 643.465C574.344 766.703 474.542 834.893 351.305 834.893C228.067 834.893 128.263 766.703 128.263 643.465C128.263 572.667 161.208 509.614 212.606 468.766C210.843 465.994 209.677 462.861 209.303 459.623C198.302 468.136 188.078 477.602 178.77 487.916C162.493 455.802 150.307 425.621 132.902 397.445L88.0497 385.435L81.5375 345.525L108.533 312.918C109.318 311.282 105.335 309.325 104.64 309.935L71.6723 341.801L72.4726 381.263L35.7219 371.423L4.92036 312.814C3.33799 311.906 1.07412 316.618 0.285521 319.798C0.0184766 320.858 -0.0775027 321.749 0.0674333 322.203L29.2267 381.574C50.9471 388.902 76.5671 395.805 105.032 405.154L85.0306 442.957C84.5632 445.324 93.6418 445.021 95.5387 442.296L118.129 409.571C120.271 410.313 122.425 411.069 124.596 411.843C137.143 439.963 154.131 476.458 164.331 505.577C135.822 544.151 118.954 591.844 118.954 643.465C118.954 771.733 223.036 844.201 351.305 844.201C479.573 844.201 583.653 771.733 583.653 643.465C583.653 595.541 569.118 551.001 544.223 514.001C571.077 491.249 600.064 470.204 622.74 447.251L623.833 400.832L661.08 385.09L699.134 403.631C700.909 404.009 701.873 399.676 701.115 399.145L662.372 374.624L624.212 384.711L625.107 346.674L674.797 302.918C675.306 301.167 670.192 300.079 666.915 300.062Z" fill="#7D4B00"/>
<path d="M351.568 309.338C330.222 309.908 328.182 345.978 351.576 347.918C390.179 348.501 445.517 343.21 459 335.415C445.873 328.08 394.72 315.379 353.694 309.395C352.966 309.337 352.257 309.319 351.568 309.338Z" fill="#FF5B00"/>
<path d="M295.478 377.736C293.232 377.736 291.078 378.628 289.49 380.216C287.902 381.804 287.01 383.958 287.01 386.203C287.01 388.449 287.902 390.603 289.49 392.191C291.078 393.779 293.232 394.671 295.478 394.671C297.724 394.671 299.877 393.779 301.465 392.191C303.053 390.603 303.945 388.449 303.946 386.203C303.945 383.958 303.053 381.804 301.465 380.216C299.877 378.628 297.724 377.736 295.478 377.736ZM407.13 377.736C404.884 377.736 402.73 378.628 401.142 380.216C399.554 381.804 398.662 383.958 398.662 386.203C398.662 388.449 399.554 390.603 401.142 392.191C402.73 393.779 404.884 394.671 407.13 394.671C409.376 394.671 411.529 393.779 413.117 392.191C414.705 390.603 415.598 388.449 415.598 386.203C415.597 383.958 414.705 381.804 413.117 380.216C411.529 378.628 409.376 377.736 407.13 377.736ZM315.111 394.045C312.865 394.045 310.712 394.937 309.124 396.525C307.536 398.113 306.644 400.267 306.643 402.513C306.644 404.759 307.536 406.912 309.124 408.5C310.712 410.088 312.865 410.981 315.111 410.981C317.357 410.981 319.511 410.088 321.099 408.5C322.687 406.912 323.579 404.759 323.579 402.513C323.579 400.267 322.687 398.113 321.099 396.525C319.511 394.937 317.357 394.045 315.111 394.045ZM387.371 394.045C385.125 394.045 382.972 394.937 381.384 396.525C379.796 398.113 378.903 400.267 378.903 402.513C378.903 404.759 379.796 406.912 381.384 408.5C382.972 410.088 385.125 410.981 387.371 410.981C389.617 410.981 391.771 410.088 393.359 408.5C394.947 406.912 395.839 404.759 395.839 402.513C395.839 400.267 394.947 398.113 393.359 396.525C391.771 394.937 389.617 394.045 387.371 394.045ZM338.571 401.257C337.459 401.257 336.358 401.476 335.33 401.902C334.302 402.327 333.368 402.951 332.582 403.738C331.795 404.524 331.172 405.458 330.746 406.485C330.32 407.513 330.102 408.615 330.102 409.727C330.102 410.839 330.321 411.94 330.747 412.968C331.172 413.995 331.796 414.929 332.583 415.715C333.369 416.501 334.303 417.125 335.33 417.55C336.358 417.976 337.459 418.195 338.571 418.195C340.817 418.194 342.971 417.302 344.559 415.714C346.147 414.126 347.039 411.973 347.039 409.727C347.039 408.615 346.82 407.513 346.395 406.486C345.969 405.458 345.346 404.525 344.559 403.738C343.773 402.952 342.84 402.328 341.812 401.902C340.785 401.476 339.683 401.257 338.571 401.257ZM363.033 401.257C361.921 401.257 360.82 401.476 359.792 401.902C358.765 402.328 357.831 402.952 357.045 403.738C356.258 404.525 355.635 405.458 355.209 406.486C354.784 407.513 354.565 408.615 354.565 409.727C354.565 411.973 355.457 414.126 357.045 415.714C358.633 417.302 360.787 418.194 363.033 418.195C364.145 418.195 365.246 417.976 366.274 417.55C367.301 417.125 368.235 416.501 369.022 415.715C369.808 414.929 370.432 413.995 370.858 412.968C371.283 411.94 371.502 410.839 371.502 409.727C371.503 408.615 371.284 407.513 370.858 406.485C370.433 405.458 369.809 404.524 369.022 403.738C368.236 402.951 367.302 402.327 366.274 401.902C365.247 401.476 364.145 401.257 363.033 401.257Z" fill="#1A1A1A"/>
<path d="M298.034 252.203C291.796 252.203 285.813 254.681 281.402 259.092C276.991 263.503 274.513 269.486 274.513 275.724C274.513 281.962 276.991 287.945 281.402 292.356C285.813 296.767 291.796 299.245 298.034 299.245C304.272 299.245 310.255 296.767 314.666 292.356C319.077 287.945 321.555 281.962 321.555 275.724C321.555 269.486 319.077 263.503 314.666 259.092C310.255 254.681 304.272 252.203 298.034 252.203ZM404.575 252.203C398.336 252.202 392.353 254.68 387.942 259.091C383.53 263.503 381.052 269.485 381.052 275.724C381.052 281.962 383.53 287.945 387.942 292.356C392.353 296.767 398.336 299.245 404.575 299.245C410.813 299.245 416.796 296.767 421.207 292.356C425.618 287.945 428.096 281.962 428.096 275.724C428.096 269.486 425.618 263.503 421.207 259.092C416.796 254.681 410.813 252.203 404.575 252.203ZM309.794 266.003C310.865 266.003 311.926 266.213 312.915 266.623C313.905 267.033 314.804 267.633 315.561 268.391C316.319 269.148 316.92 270.047 317.329 271.036C317.739 272.026 317.95 273.086 317.95 274.157C317.95 275.228 317.739 276.289 317.329 277.278C316.919 278.267 316.318 279.166 315.561 279.923C314.803 280.68 313.904 281.281 312.915 281.69C311.925 282.1 310.865 282.31 309.794 282.31C307.632 282.31 305.558 281.451 304.03 279.922C302.501 278.393 301.642 276.32 301.641 274.157C301.641 271.995 302.5 269.921 304.029 268.392C305.558 266.863 307.631 266.003 309.794 266.003ZM416.335 266.003C417.406 266.003 418.466 266.213 419.456 266.623C420.445 267.033 421.345 267.633 422.102 268.391C422.859 269.148 423.46 270.047 423.87 271.036C424.28 272.026 424.491 273.086 424.491 274.157C424.491 275.228 424.28 276.289 423.87 277.278C423.46 278.267 422.859 279.166 422.101 279.923C421.344 280.68 420.445 281.281 419.455 281.69C418.466 282.1 417.405 282.31 416.335 282.31C414.172 282.31 412.099 281.451 410.57 279.922C409.041 278.393 408.182 276.32 408.182 274.157C408.182 271.995 409.041 269.921 410.57 268.392C412.098 266.863 414.172 266.003 416.335 266.003Z" fill="#1A1A1A"/>
<path d="M351.304 545.974C348.174 545.974 345.074 546.38 342.182 547.168C339.29 547.956 336.662 549.111 334.449 550.567C332.235 552.023 330.479 553.752 329.281 555.655C328.083 557.557 327.467 559.597 327.467 561.656C327.467 563.715 328.083 565.755 329.281 567.657C330.479 569.56 332.235 571.289 334.449 572.745C336.662 574.201 339.29 575.356 342.182 576.144C345.074 576.932 348.174 577.338 351.304 577.337C354.435 577.337 357.534 576.932 360.426 576.144C363.318 575.356 365.946 574.201 368.159 572.744C370.372 571.288 372.128 569.56 373.326 567.657C374.524 565.754 375.141 563.715 375.141 561.656C375.141 559.597 374.524 557.557 373.326 555.655C372.128 553.752 370.372 552.024 368.159 550.567C365.946 549.111 363.318 547.956 360.426 547.168C357.534 546.38 354.435 545.974 351.304 545.974ZM351.304 605.689C348.174 605.689 345.074 606.094 342.182 606.882C339.29 607.67 336.662 608.825 334.449 610.281C332.235 611.738 330.479 613.466 329.281 615.369C328.083 617.272 327.467 619.311 327.467 621.37C327.466 623.43 328.082 625.469 329.28 627.372C330.478 629.275 332.234 631.004 334.448 632.46C336.661 633.917 339.289 635.072 342.182 635.86C345.074 636.648 348.174 637.054 351.304 637.054C354.435 637.054 357.535 636.648 360.427 635.86C363.319 635.072 365.947 633.916 368.16 632.46C370.374 631.004 372.129 629.275 373.327 627.372C374.525 625.469 375.141 623.43 375.141 621.37C375.141 619.311 374.524 617.272 373.326 615.369C372.128 613.467 370.372 611.738 368.159 610.282C365.946 608.826 363.318 607.671 360.426 606.882C357.534 606.094 354.435 605.689 351.304 605.689ZM351.304 665.405C348.174 665.405 345.074 665.81 342.182 666.598C339.29 667.386 336.662 668.541 334.449 669.998C332.235 671.454 330.479 673.183 329.281 675.085C328.083 676.988 327.467 679.027 327.467 681.087C327.467 683.146 328.083 685.185 329.281 687.088C330.479 688.991 332.235 690.719 334.449 692.175C336.662 693.632 339.29 694.787 342.182 695.575C345.074 696.363 348.174 696.768 351.304 696.768C354.435 696.768 357.534 696.362 360.426 695.574C363.318 694.786 365.946 693.631 368.159 692.175C370.372 690.719 372.128 688.99 373.326 687.088C374.524 685.185 375.141 683.146 375.141 681.087C375.141 679.027 374.524 676.988 373.326 675.085C372.128 673.183 370.372 671.454 368.159 669.998C365.946 668.542 363.318 667.387 360.426 666.599C357.534 665.811 354.435 665.405 351.304 665.405Z" fill="#1A1A1A"/>
<path d="M87.587 85.0506C88.6979 85.0214 89.8077 85.0729 90.9057 85.2611C92.7895 85.6046 94.5639 86.3609 96.3238 87.0912C101.76 89.4095 107.38 91.2584 112.942 93.2413C114.914 94.0206 117.012 94.7664 118.489 96.3627C120.953 99.7407 122.743 103.572 125.377 106.831C128.012 108.733 130.749 110.485 133.459 112.277C135.063 113.315 135.959 115.086 136.681 116.793C137.86 121.727 138.973 126.677 140.044 131.636C140.508 134.118 141.079 136.679 140.563 139.201C138.932 143.358 137.021 147.402 135.509 151.607C135.334 154.402 135.373 157.206 135.386 160.005C135.562 163.837 134.311 167.734 131.844 170.685C128.596 172.937 125.29 175.101 121.994 177.281C121.039 178.998 120.085 180.716 119.13 182.433C117.904 184.947 116.079 187.206 113.718 188.731C112.669 189.355 111.599 190.061 110.361 190.214C106.516 190.162 102.67 190.036 98.8252 190.139C98.2391 190.197 97.6337 190.072 97.0634 190.251C94.2987 191.465 91.5926 192.817 88.8443 194.07C85.0159 195.864 80.4488 196.115 76.4987 194.557C73.8191 192.609 71.1439 190.655 68.4446 188.733C67.8075 188.196 67.0446 187.777 66.2011 187.706C63.3034 187.03 60.3396 186.721 57.4188 186.169C54.9027 185.719 52.3701 184.682 50.6657 182.71C49.0121 179.328 47.3582 175.947 45.7047 172.565C43.3938 170.622 40.9654 168.823 38.6557 166.881C37.045 165.242 35.4827 163.413 34.8287 161.163C34.7514 157.41 35.3317 153.686 35.4678 149.94C35.0507 147.125 34.138 144.418 33.2281 141.731C32.0406 138.571 31.5818 135.061 32.3672 131.748C33.5689 129.924 34.7706 128.099 35.9723 126.275C36.7973 124.867 37.9581 123.631 38.4433 122.044C38.7225 119.508 39.0111 116.973 39.3118 114.439C39.7122 112.542 40.044 110.544 41.1779 108.919C43.7923 106.6 46.8113 104.813 49.7706 102.979C51.857 100.47 53.3688 97.5551 55.3233 94.95C56.6067 93.3577 58.1668 91.8368 60.1819 91.2557C62.7836 90.8425 65.4139 90.6512 68.0387 90.4554C69.368 90.2943 70.7206 90.3692 72.0364 90.097C74.3374 89.1585 76.6127 88.1591 78.89 87.1652C80.243 86.6292 81.521 85.9022 82.9199 85.4849C83.3687 85.4277 83.8156 85.3716 84.2645 85.3143C85.3644 85.189 86.4761 85.0798 87.587 85.0506ZM400.306 124.678C408.691 124.785 416.733 127.489 425.005 128.513C432.961 129.515 440.918 127.863 448.885 128.01C457.652 128.306 466.181 131.443 473.451 136.273C477.609 138.884 481.331 142.358 483.678 146.713C485.486 149.87 486.019 153.527 486.489 157.078C487.227 162.978 488.162 168.867 489.722 174.611C490.81 179.106 492.762 183.444 492.935 188.123C493.03 193.789 490.793 199.328 487.321 203.743C484.317 207.7 480.134 210.722 475.463 212.399C470.832 214.028 465.888 214.306 461.075 215.076C455.068 215.861 449.249 217.755 443.768 220.305C439.215 222.312 434.812 224.904 429.835 225.712C421.894 226.671 413.929 224.656 405.988 225.602C398.323 226.682 391.315 230.19 383.881 232.152C376.604 233.653 369.138 233.016 361.769 233.384C353.673 233.904 345.923 236.481 338.073 238.319C334.934 239.103 331.751 239.752 328.515 239.956C319.557 240.654 310.656 238.309 301.7 239.165C292.45 240.038 283.897 244.106 274.748 245.501C268.817 246.342 262.858 245.201 257.03 244.158C250.542 242.726 243.837 242.213 237.214 242.813C231.819 243.377 226.399 244.605 220.956 243.889C214.651 242.886 208.823 239.905 203.737 236.129C198.614 232.503 194.486 227.292 192.707 221.227C191.935 216.505 191.478 211.735 190.856 206.992C190.372 202.393 189.577 197.834 189.074 193.237C188.494 188.529 188.681 183.552 190.733 179.196C193.842 173.274 198.433 168.205 203.706 164.127C207.83 160.751 212.666 158.31 217.748 156.745C224.403 154.861 231.033 152.853 237.495 150.375C245.035 147.605 252.339 144.021 260.267 142.451C270.03 140.899 280.002 141.045 289.709 139.08C300.76 136.445 311.741 133.348 323.029 131.864C323.611 131.781 324.191 131.702 324.774 131.63C333.514 130.548 342.348 130.692 351.139 130.739C358.504 130.965 365.842 129.916 373.032 128.401C382.016 126.542 391.081 124.557 400.306 124.678Z" fill="white"/>
<path d="M318.203 0.00017774V0.00396316C310.774 0.0117309 302.862 0.260965 294.365 0.663916C277.282 2.96508 263.613 6.0878 252.67 9.87101C252.389 9.93024 252.112 9.9854 251.828 10.0493C227.069 16.885 202.475 23.8846 174.145 39.347C146.471 54.4515 124.011 71.7488 110.778 86.9584C106.513 85.463 102.319 83.9906 98.3662 82.3046C98.3505 82.2982 98.3347 82.2919 98.3189 82.2857C96.5929 81.5695 94.4848 80.6232 91.8388 80.1408C91.8211 80.1375 91.8034 80.1343 91.7857 80.1311C90.6403 79.9348 89.5359 79.8551 88.484 79.8429C88.1334 79.838 87.7888 79.8409 87.4505 79.8506C86.0991 79.8861 84.8393 80.0103 83.6766 80.1427C83.6532 80.1458 83.6298 80.149 83.6064 80.1524C83.1467 80.211 82.6982 80.269 82.26 80.325C81.9794 80.3605 81.7023 80.4189 81.4312 80.4994C79.2791 81.1413 77.8739 81.9714 76.9746 82.3276C76.9186 82.35 76.863 82.3734 76.8077 82.3978C74.7216 83.3083 72.6818 84.1906 70.6539 85.0281C70.1304 85.0926 69.1717 85.0802 67.43 85.2898C67.4203 85.2907 67.4222 85.2903 67.4129 85.2917C64.8643 85.4812 62.1789 85.6681 59.3664 86.1148C59.1551 86.1493 58.9461 86.1968 58.7406 86.257C55.0894 87.3099 52.8331 89.7485 51.2725 91.6846C51.2344 91.7313 51.1971 91.7787 51.1606 91.8268C49.0178 94.6831 47.6244 97.2063 46.137 99.1204C43.4552 100.769 40.5305 102.541 37.7245 105.03C37.4176 105.301 37.1439 105.608 36.9091 105.944C34.9013 108.821 34.5874 111.627 34.2199 113.368C34.1878 113.52 34.1625 113.673 34.1441 113.827C33.8727 116.114 33.6129 118.404 33.359 120.692C33.2678 120.854 32.6702 121.655 31.6181 123.427C30.4178 125.249 29.2206 127.07 28.0225 128.888C27.6884 129.396 27.4457 129.958 27.3056 130.55C26.2255 135.106 26.8772 139.626 28.3562 143.561L28.2975 143.4C29.1627 145.955 29.8703 148.237 30.2224 150.356C30.0598 153.556 29.5402 157.157 29.625 161.272C29.6348 161.727 29.7043 162.179 29.8317 162.616C30.8945 166.273 33.1562 168.71 34.9444 170.53C35.0598 170.647 35.1807 170.76 35.3066 170.866C37.4933 172.704 39.5838 174.292 41.5364 175.889C43.0204 178.925 44.5047 181.963 45.9892 185C46.186 185.402 46.4339 185.778 46.7269 186.117C49.5101 189.336 53.2223 190.707 56.5029 191.294C59.6831 191.892 62.5593 192.201 65.0216 192.775C65.0846 192.787 65.1478 192.799 65.2112 192.809C65.2812 192.867 65.3526 192.922 65.4255 192.976C68.0903 194.873 70.7524 196.817 73.4379 198.77C73.794 199.028 74.1814 199.24 74.5909 199.401C79.9931 201.531 85.9549 201.173 91.0537 198.783C93.586 197.627 95.9525 196.474 98.279 195.424C98.4407 195.41 98.6868 195.388 99.0964 195.345C102.696 195.253 106.426 195.367 110.291 195.42C110.529 195.423 110.766 195.41 111.002 195.381C113.814 195.033 115.477 193.74 116.377 193.205C116.433 193.172 116.488 193.137 116.543 193.101C119.759 191.022 122.099 188.105 123.678 184.962C124.427 183.613 125.181 182.263 125.933 180.911C128.872 178.97 131.842 177.023 134.81 174.966C135.193 174.7 135.539 174.385 135.838 174.027C139.198 170.008 140.819 164.888 140.584 159.766L140.59 159.98C140.578 157.406 140.578 154.994 140.693 152.67C142.062 148.989 143.79 145.228 145.409 141.103C145.518 140.825 145.603 140.539 145.663 140.246C146.469 136.307 145.601 133.043 145.16 130.684C145.152 130.637 145.142 130.589 145.132 130.542C144.529 127.746 143.906 124.952 143.27 122.158C161.729 117.482 184.777 108.63 210.638 96.6343C211.592 96.1919 212.537 95.7447 213.477 95.2935C213.881 101.023 214 106.711 213.435 112.268C211.782 128.545 211.283 142.091 211.783 153.371C207.762 155.034 203.921 157.242 200.469 160.058C194.723 164.511 189.633 170.094 186.123 176.781C186.089 176.847 186.056 176.914 186.024 176.982C183.381 182.595 183.259 188.558 183.904 193.831C184.431 198.636 185.22 203.183 185.679 207.54C185.684 207.585 185.689 207.629 185.694 207.673C186.301 212.296 186.761 217.118 187.57 222.067C187.604 222.278 187.652 222.487 187.712 222.693C189.872 230.057 194.744 236.129 200.693 240.35C206.243 244.46 212.772 247.858 220.139 249.03C220.185 249.037 220.231 249.043 220.277 249.049C226.904 249.922 232.737 248.525 237.704 248C243.741 247.455 249.908 247.916 255.909 249.241C255.977 249.256 256.044 249.27 256.112 249.282C261.898 250.318 268.42 251.656 275.478 250.655C275.496 250.652 275.514 250.649 275.531 250.646C285.693 249.096 294.147 245.103 302.189 244.344H302.195C309.918 243.606 318.77 245.922 328.878 245.142C332.552 244.908 336.008 244.194 339.261 243.384L339.293 243.373C347.432 241.465 354.885 239.046 362.078 238.581C368.962 238.241 376.698 238.946 384.932 237.248C385.025 237.229 385.117 237.207 385.209 237.183C393.32 235.043 400.118 231.703 406.659 230.768C413.323 229.99 421.271 231.986 430.459 230.876C430.529 230.868 430.599 230.858 430.668 230.847C436.903 229.835 441.695 226.906 445.868 225.067C445.9 225.052 445.932 225.037 445.964 225.021C451.062 222.65 456.38 220.936 461.748 220.235C461.798 220.228 461.848 220.22 461.898 220.212C466.352 219.499 471.638 219.261 477.191 217.307C477.201 217.303 477.211 217.299 477.221 217.295C482.817 215.287 487.795 211.701 491.431 206.93C495.528 201.709 498.258 195.112 498.138 188.032C498.138 187.997 498.136 187.962 498.135 187.928C497.913 181.922 495.713 177.24 494.78 173.384C494.768 173.338 494.756 173.291 494.744 173.245C493.282 167.862 492.376 162.215 491.653 156.43C491.651 156.418 491.649 156.406 491.647 156.394C491.173 152.812 490.641 148.442 488.218 144.181C485.344 138.884 480.982 134.873 476.295 131.917C472.483 129.388 468.338 127.274 463.971 125.714C461.879 110.411 453.182 90.7889 435.723 65.6086C398.375 11.7398 370.202 -0.0528564 318.203 0.00017774ZM87.587 85.0506C88.6979 85.0214 89.8077 85.0729 90.9057 85.2611C92.7895 85.6046 94.5639 86.3609 96.3238 87.0912C101.76 89.4095 107.38 91.2584 112.942 93.2412C114.914 94.0206 117.012 94.7664 118.489 96.3627C120.953 99.7407 122.743 103.572 125.377 106.831C128.012 108.733 130.749 110.485 133.459 112.277C135.063 113.315 135.959 115.086 136.681 116.793C137.86 121.727 138.973 126.677 140.044 131.636C140.508 134.118 141.079 136.679 140.563 139.201C138.932 143.358 137.021 147.402 135.509 151.607C135.334 154.402 135.373 157.206 135.386 160.005C135.562 163.837 134.311 167.734 131.844 170.685C128.596 172.937 125.29 175.101 121.994 177.281C121.039 178.998 120.085 180.716 119.13 182.433C117.904 184.947 116.079 187.206 113.718 188.731C112.669 189.355 111.599 190.061 110.361 190.214C106.516 190.162 102.67 190.036 98.8252 190.139C98.2391 190.197 97.6337 190.072 97.0634 190.251C94.2987 191.465 91.5926 192.817 88.8443 194.07C85.0159 195.864 80.4488 196.115 76.4987 194.557C73.8191 192.609 71.1439 190.655 68.4446 188.733C67.8075 188.196 67.0446 187.777 66.2011 187.706C63.3034 187.03 60.3396 186.721 57.4188 186.169C54.9027 185.719 52.3701 184.682 50.6657 182.71C49.0121 179.328 47.3582 175.947 45.7047 172.565C43.3938 170.622 40.9654 168.823 38.6557 166.881C37.045 165.242 35.4827 163.413 34.8287 161.163C34.7514 157.41 35.3317 153.686 35.4678 149.94C35.0507 147.125 34.138 144.418 33.2281 141.731C32.0406 138.571 31.5818 135.061 32.3672 131.748C33.5689 129.924 34.7706 128.099 35.9723 126.275C36.7973 124.867 37.9581 123.631 38.4433 122.044C38.7225 119.508 39.0111 116.973 39.3118 114.439C39.7122 112.542 40.044 110.544 41.1779 108.919C43.7923 106.6 46.8113 104.813 49.7706 102.979C51.857 100.47 53.3688 97.5551 55.3233 94.95C56.6067 93.3577 58.1668 91.8368 60.1819 91.2557C62.7836 90.8425 65.4139 90.6512 68.0387 90.4554C69.368 90.2943 70.7206 90.3692 72.0364 90.097C74.3374 89.1585 76.6127 88.1591 78.89 87.1652C80.243 86.6292 81.521 85.9022 82.9199 85.4849C83.3687 85.4277 83.8156 85.3715 84.2645 85.3143C85.3644 85.189 86.4761 85.0798 87.587 85.0506ZM400.306 124.678C408.691 124.785 416.733 127.489 425.005 128.513C432.961 129.515 440.918 127.863 448.885 128.01C457.652 128.306 466.181 131.443 473.451 136.273C477.609 138.884 481.331 142.358 483.678 146.713C485.486 149.87 486.019 153.527 486.489 157.078C487.227 162.978 488.162 168.867 489.722 174.611C490.81 179.106 492.762 183.444 492.935 188.123C493.03 193.789 490.793 199.328 487.321 203.743C484.317 207.7 480.134 210.722 475.463 212.399C470.832 214.028 465.888 214.306 461.075 215.076C455.068 215.861 449.249 217.755 443.768 220.305C439.215 222.312 434.812 224.904 429.835 225.712C421.894 226.671 413.929 224.656 405.988 225.602C398.323 226.682 391.315 230.19 383.881 232.152C376.604 233.653 369.138 233.016 361.769 233.384C353.673 233.904 345.923 236.481 338.073 238.319C334.934 239.103 331.751 239.752 328.515 239.956C319.557 240.654 310.656 238.309 301.7 239.165C292.45 240.038 283.897 244.106 274.748 245.501C268.817 246.342 262.858 245.201 257.03 244.158C250.542 242.726 243.837 242.213 237.214 242.813C231.819 243.377 226.399 244.605 220.956 243.889C214.651 242.886 208.823 239.905 203.737 236.129C198.614 232.503 194.486 227.292 192.707 221.227C191.935 216.505 191.478 211.735 190.856 206.992C190.372 202.393 189.577 197.834 189.074 193.237C188.494 188.529 188.681 183.552 190.733 179.196C193.842 173.274 198.433 168.205 203.706 164.127C207.83 160.751 212.666 158.31 217.748 156.745C224.403 154.861 231.033 152.853 237.495 150.375C245.035 147.605 252.339 144.021 260.267 142.451C270.03 140.899 280.002 141.045 289.709 139.08C300.76 136.445 311.741 133.348 323.029 131.864C323.611 131.781 324.191 131.702 324.774 131.63C333.514 130.548 342.348 130.692 351.139 130.739C358.504 130.965 365.842 129.916 373.032 128.401C382.016 126.542 391.081 124.557 400.306 124.678Z" fill="#D40000"/>
<path d="M484.359 413.002C484.039 412.989 483.718 412.985 483.398 412.99C469.979 414.628 457.344 419.679 444.586 423.865C423.374 430.927 401.73 437.255 379.416 439.565C367.709 440.75 355.93 440.852 344.21 440.026C341.158 435.34 336.463 431.694 331.137 429.975C325.3 427.873 319.149 426.893 313.161 425.34C307.414 424.076 301.662 422.73 295.811 422.074C295.425 422.057 295.039 422.074 294.652 422.074C289.722 422.485 284.814 424.225 280.807 427.155C268.368 423.678 255.904 420.287 243.288 417.51C236.633 416.655 229.408 417.931 224.133 422.286C219.265 426.357 216.71 432.332 214.071 437.937C211.153 443.936 208.007 450.137 207.757 456.94C207.547 466.299 213.727 475.287 222.34 478.808C230.821 483.052 239.495 486.921 248.333 490.359C252.191 491.785 256.093 493.071 260.028 494.237C251.814 532.528 243.746 570.85 236.376 609.314C234.463 619.449 233.016 629.666 231.796 639.906C231.014 646.096 230.328 652.305 229.366 658.468C228.253 662.235 222.136 671.331 220.43 674.843C219.816 675.815 219.326 677.179 220.21 678.157C221.352 679.737 224.003 679.97 225.225 678.359C226.524 677.28 231.782 670.378 233.245 669.52C234.393 669.486 234.841 670.915 234.36 671.924C233.505 673.719 229.773 680.396 230.252 682.335C230.74 684.31 234.647 683.078 235.987 681.57C237.294 680.099 240.58 674.463 242.442 673.826C243.781 673.368 240.325 679.762 239.941 682.864C239.709 684.739 238.555 687.408 240.075 688.531C241.512 689.593 244.299 688.965 245.235 687.078C246.163 685.205 251.078 677.442 252.666 676.083C253.609 675.275 254.792 677.191 254.483 678.395C253.966 680.408 251.025 688.473 251.841 690.384C252.817 692.669 256.747 691.22 257.806 689.003C258.761 687.004 261.719 679.012 263.432 677.605C264.57 676.671 266.557 677.672 266.41 679.131C266.189 681.326 264.545 690.596 265.749 692.45C267.075 694.491 271.096 692.702 271.732 690.366C272.309 688.246 273.007 679.415 274.507 677.811C275.614 676.627 277.085 679.087 276.92 680.662C276.665 683.081 278.503 690.241 280.038 692.145C281.879 694.427 285.915 691.582 285.832 688.651C285.76 686.11 283.295 679.671 283.821 677.184C284.029 676.198 285.773 677.184 285.941 678.189C286.48 681.406 290.73 688.805 292.938 691.217C294.899 693.36 298.892 689.599 297.934 686.851C297.177 682.867 292.664 674.893 292.474 670.835C299.395 651.518 303.769 631.422 307.753 611.33C315.393 575.787 323.289 540.283 332.588 505.131C361.629 506.484 390.789 504.986 419.617 501.287C433.787 499.37 447.817 496.368 461.476 492.124C472.313 489.222 483.119 485.877 493.11 480.696C499.104 477.358 503.707 471.479 505.146 464.73C506.803 458.205 505.74 451.426 504.675 444.898C503.294 436.084 500.797 427.4 496.801 419.404C494 415.403 489.17 413.204 484.359 413.001V413.002Z" fill="#D40000"/>
</svg>
